<svg width="100%" height="100%" style="overflow:visible;" preserveAspectRatio="none" viewBox="0 0 109.5 20" fill="none" xmlns="http://www.w3.org/2000/svg">
<path d="M54.6167 20.5C54.0834 20.5 53.5723 20.4 53.0834 20.2C52.5945 20 52.1612 19.7111 51.7834 19.3333L44.9834 12.5L46.0834 11.3667C46.3945 11.0556 46.7723 10.8444 47.2167 10.7333C47.6612 10.6222 48.1056 10.6222 48.5501 10.7333L50.8501 11.4V1.83333C50.8501 1.45556 50.9778 1.13889 51.2334 0.883333C51.489 0.627778 51.8056 0.5 52.1834 0.5C52.5612 0.5 52.8778 0.627778 53.1334 0.883333C53.389 1.13889 53.5167 1.45556 53.5167 1.83333V14.9333L50.2501 14L53.6834 17.4333C53.8167 17.5667 53.9612 17.6667 54.1167 17.7333C54.2723 17.8 54.439 17.8333 54.6167 17.8333H60.1834C60.9167 17.8333 61.5445 17.5722 62.0667 17.05C62.589 16.5278 62.8501 15.9 62.8501 15.1667V9.83333C62.8501 9.45556 62.9778 9.13889 63.2334 8.88333C63.489 8.62778 63.8056 8.5 64.1834 8.5C64.5612 8.5 64.8778 8.62778 65.1334 8.88333C65.389 9.13889 65.5167 9.45556 65.5167 9.83333V15.1667C65.5167 16.6333 64.9945 17.8889 63.9501 18.9333C62.9056 19.9778 61.6501 20.5 60.1834 20.5H54.6167ZM54.8501 11.1667V5.83333C54.8501 5.45556 54.9778 5.13889 55.2334 4.88333C55.489 4.62778 55.8056 4.5 56.1834 4.5C56.5612 4.5 56.8778 4.62778 57.1334 4.88333C57.389 5.13889 57.5167 5.45556 57.5167 5.83333V11.1667H54.8501ZM58.8501 11.1667V7.16667C58.8501 6.78889 58.9778 6.47222 59.2334 6.21667C59.489 5.96111 59.8056 5.83333 60.1834 5.83333C60.5612 5.83333 60.8778 5.96111 61.1334 6.21667C61.389 6.47222 61.5167 6.78889 61.5167 7.16667V11.1667H58.8501Z" fill="white"/>
</svg>
