<svg width="100%" height="100%" style="overflow:visible;" preserveAspectRatio="none" viewBox="0 0 136 131" fill="none" xmlns="http://www.w3.org/2000/svg">
<g clip-path="url(#clip0_1_153)">
<path fill-rule="evenodd" clip-rule="evenodd" d="M2.21433 1.35095H124.214V129.651H2.21433V1.35095Z" fill="white" stroke="#112832" stroke-width="3"/>
<path fill-rule="evenodd" clip-rule="evenodd" d="M96.7243 105V27L111.703 26.906L134.214 66.869L113.435 105.1L96.7243 105Z" fill="#FFE500" stroke="#112832" stroke-width="2"/>
<path fill-rule="evenodd" clip-rule="evenodd" d="M2.72433 43L18.0033 43.043V43.011L28.6393 43.042L45.9563 49.992L73.6623 43.042L97.7143 43.011V49.992H110.023L123.876 67.368L110.026 89.957H65.0033L42.4913 83.007L19.9793 89.957L2.71433 90L2.72433 43Z" fill="#5D7077" stroke="#112832" stroke-width="2"/>
<path d="M122.724 69.106H84.1493L46.0493 49.993" stroke="#112832" stroke-width="2"/>
<path d="M2.75134 63.894L42.5843 83.007" stroke="#112832" stroke-width="2"/>
<path d="M1.64833 42.5H28.5623L46.5033 49.5L72.4183 42.5H97.3253V26.5H112.273L134.714 67L113.205 105.5H97.4403V90.333L95.9533 90.494H65.5913L43.0143 83L18.5953 90.5H1.64833" stroke="#112832" stroke-width="3"/>
</g>
<defs>
<clipPath id="clip0_1_153">
<rect width="136" height="131" fill="white" transform="translate(0.714333)"/>
</clipPath>
</defs>
</svg>
