<svg width="100%" height="100%" style="overflow:visible;" preserveAspectRatio="none" viewBox="0 0 136 131" fill="none" xmlns="http://www.w3.org/2000/svg">
<g clip-path="url(#clip0_1_164)">
<path fill-rule="evenodd" clip-rule="evenodd" d="M1.92871 1.43103H123.929V129.569H1.92871V1.43103Z" fill="white" stroke="#112832" stroke-width="3"/>
<path fill-rule="evenodd" clip-rule="evenodd" d="M3.19672 43.011L31.1367 43.042L57.1117 49.992L110.793 43.042H121.183L122.915 65.631L110.793 83.007L105.593 89.957H90.0127L65.7697 83.007L39.7947 89.957H29.4047L3.19672 89.988" fill="#5D7077"/>
<path d="M3.19672 43.011L31.1367 43.042L57.1117 49.992L110.793 43.042H121.183L122.915 65.631L110.793 83.007L105.593 89.957H90.0127L65.7697 83.007L39.7947 89.957H29.4047L3.19672 89.988" stroke="#112832" stroke-width="2"/>
<path fill-rule="evenodd" clip-rule="evenodd" d="M122.022 65.631V43.043H125.494L134.175 65.632L123.758 89.957H97.7157V73.691" fill="#FFE500"/>
<path d="M122.022 65.631V43.043H125.494L134.175 65.632L123.758 89.957H97.7157V73.691" stroke="#112832" stroke-width="2"/>
<path d="M132.439 63.894L120.286 65.632L61.2567 84.745" stroke="#112832" stroke-width="2"/>
<path d="M2.2287 63.894L57.7857 49.994" stroke="#112832" stroke-width="2"/>
<path d="M3.22272 90.5H39.1927L66.6697 83L89.3017 90.494L123.229 90.5L134.614 66L125.114 42.5H110.129L57.1827 49.5L31.2047 42.5H3.22272" stroke="#112832" stroke-width="3"/>
</g>
<defs>
<clipPath id="clip0_1_164">
<rect width="136" height="131" fill="white" transform="translate(0.428711)"/>
</clipPath>
</defs>
</svg>
