<svg width="100%" height="100%" style="overflow:visible;" preserveAspectRatio="none" viewBox="0 0 136 131" fill="none" xmlns="http://www.w3.org/2000/svg">
<g clip-path="url(#clip0_1_126)">
<path fill-rule="evenodd" clip-rule="evenodd" d="M1.78574 1.48901H123.786V129.511H1.78574V1.48901Z" fill="white" stroke="#112832" stroke-width="3"/>
<path fill-rule="evenodd" clip-rule="evenodd" d="M3.30075 43L18.0278 43.043H27.4448L44.8038 49.993L72.5788 43.043H121.186L128.13 67.369L121.186 89.957H63.8988L41.3318 83.007L18.0318 89.957L3.30475 89.988" fill="#5D7077"/>
<path d="M3.30075 43L18.0278 43.043H27.4448L44.8038 49.993L72.5788 43.043H121.186L128.13 67.369L121.186 89.957H63.8988L41.3318 83.007L18.0318 89.957L3.30475 89.988" stroke="#112832" stroke-width="2"/>
<path d="M127.402 67.369L121.244 65.631L124.716 77.794L121.244 88.22" stroke="#112832" stroke-width="2"/>
<path d="M45.1767 50.869L119.186 89.082" stroke="#112832" stroke-width="2"/>
<path d="M1.00174 62L41.3807 83.007" stroke="#112832" stroke-width="2"/>
<path fill-rule="evenodd" clip-rule="evenodd" d="M104.214 92L93.8557 67.379L102.488 58.587L99.0347 41H119.752L132.837 65.617L121.478 92H104.214Z" fill="#FFE500" stroke="#112832" stroke-width="2" stroke-linejoin="round"/>
<path d="M102.146 58.681H112.258L129.113 73.319" stroke="#112832" stroke-width="2" stroke-linejoin="round"/>
<path d="M110.817 77.782C112.733 77.782 114.286 76.2289 114.286 74.313C114.286 72.3971 112.733 70.844 110.817 70.844C108.901 70.844 107.348 72.3971 107.348 74.313C107.348 76.2289 108.901 77.782 110.817 77.782Z" fill="#FFE500" stroke="#112832" stroke-width="2"/>
<path d="M2.50073 42.5H26.4857L45.4697 50.5L72.4447 42.5H99.9197L100.857 40.5H119.841L133.83 65.5L121.839 92.5H105.853L103.911 90.441L63.4497 90.5L42.4667 83.5L12.4917 90.5H2.50073" stroke="#112832" stroke-width="3"/>
</g>
<defs>
<clipPath id="clip0_1_126">
<rect width="136" height="131" fill="white" transform="translate(0.285736)"/>
</clipPath>
</defs>
</svg>
