<svg width="100%" height="100%" style="overflow:visible;" preserveAspectRatio="none" viewBox="0 0 23 29" fill="none" xmlns="http://www.w3.org/2000/svg">
<g clip-path="url(#clip0_1_42)">
<path fill-rule="evenodd" clip-rule="evenodd" d="M20.222 25.7521C20.2547 25.9687 20.2103 26.19 20.0967 26.3773C19.983 26.5645 19.8073 26.706 19.6 26.7771C18.0271 27.6373 16.1875 27.8725 14.4487 27.4357C12.7099 26.999 11.1998 25.9225 10.22 24.4211C7.98677 22.6839 6.03599 20.6113 4.43703 18.2771C3.18047 16.1436 2.39616 13.7655 2.13703 11.3031C1.39724 10.0989 1.0972 8.67564 1.28788 7.27525C1.47856 5.87486 2.1482 4.58368 3.18303 3.62109C3.43391 2.9072 3.94349 2.31341 4.61103 1.95709L4.66503 1.92809C5.3983 1.52761 6.25564 1.41843 7.06589 1.62234C7.87613 1.82624 8.57966 2.32823 9.03603 3.02809L10.683 5.70009C10.8916 6.0421 11.0271 6.42363 11.0809 6.82061C11.1348 7.21759 11.1058 7.62141 10.9957 8.00662C10.8857 8.39183 10.6971 8.75007 10.4417 9.05875C10.1863 9.36742 9.8698 9.61984 9.51203 9.80009L9.45803 9.82909C8.89129 10.1342 8.24876 10.27 7.60703 10.2201C7.70354 11.644 8.06364 13.0376 8.66903 14.3301L10.688 17.6101C11.4034 18.5622 12.2775 19.3839 13.272 20.0391C13.5204 19.3163 14.0336 18.7146 14.708 18.3551L14.762 18.3261C15.4953 17.9256 16.3526 17.8164 17.1629 18.0203C17.9731 18.2242 18.6767 18.7262 19.133 19.4261L20.781 22.1001C21.1349 22.6766 21.273 23.3598 21.1707 24.0285C21.0683 24.6972 20.7322 25.3079 20.222 25.7521Z" fill="#FFE600" stroke="#112832" stroke-width="2"/>
</g>
<defs>
<clipPath id="clip0_1_42">
<rect width="23" height="29" fill="white"/>
</clipPath>
</defs>
</svg>
