<svg width="24" height="24" viewBox="0 0 24 24" fill="none" xmlns="http://www.w3.org/2000/svg">
<path d="M9 22.0005C8.16667 22.0005 7.45833 21.7089 6.875 21.1255C6.29167 20.5422 6 19.8339 6 19.0005C6 18.1672 6.29167 17.4589 6.875 16.8755C7.45833 16.2922 8.16667 16.0005 9 16.0005C9.83333 16.0005 10.5417 16.2922 11.125 16.8755C11.7083 17.4589 12 18.1672 12 19.0005C12 19.8339 11.7083 20.5422 11.125 21.1255C10.5417 21.7089 9.83333 22.0005 9 22.0005ZM13.475 18.5255C13.375 17.6089 13.0333 16.8005 12.45 16.1005C11.8667 15.4005 11.1417 14.9255 10.275 14.6755L12.925 12.0005H5.9C5.36667 12.0005 4.91667 11.8172 4.55 11.4505C4.18333 11.0839 4 10.6339 4 10.1005C4 9.76719 4.0875 9.45469 4.2625 9.16302C4.4375 8.87135 4.66667 8.63385 4.95 8.45052L17.1 1.17552C17.4 0.992188 17.7167 0.946354 18.05 1.03802C18.3833 1.12969 18.6417 1.32552 18.825 1.62552C19.0083 1.92552 19.0542 2.23802 18.9625 2.56302C18.8708 2.88802 18.6833 3.14219 18.4 3.32552L9 9.00052H18.1C18.6333 9.00052 19.0833 9.18385 19.45 9.55052C19.8167 9.91719 20 10.3672 20 10.9005C20 11.2005 19.9625 11.4964 19.8875 11.788C19.8125 12.0797 19.6667 12.3339 19.45 12.5505L13.475 18.5255Z" fill="#112832"/>
</svg>
