<svg width="100%" height="100%" style="overflow:visible;" preserveAspectRatio="none" viewBox="0 0 25.67 24.01" fill="none" xmlns="http://www.w3.org/2000/svg">
<path fill-rule="evenodd" clip-rule="evenodd" d="M20.4183 20.4065C20.4459 20.5889 20.4085 20.7752 20.3128 20.933C20.2171 21.0907 20.069 21.2099 19.8945 21.2697C18.5698 21.9941 17.0205 22.1922 15.5561 21.8244C14.0917 21.4566 12.8199 20.5499 11.9947 19.2855C10.1139 17.8224 8.47095 16.0769 7.12431 14.1111C6.06604 12.3143 5.4055 10.3114 5.18727 8.2376C4.56422 7.2234 4.31153 6.02478 4.47212 4.84538C4.63271 3.66598 5.19668 2.57855 6.0682 1.76786C6.2795 1.16663 6.70866 0.666547 7.27085 0.366452L7.31633 0.342028C7.93389 0.00475166 8.65594 -0.0872018 9.33832 0.0845256C10.0207 0.256253 10.6132 0.679026 10.9976 1.26844L12.3847 3.51878C12.5603 3.80683 12.6745 4.12814 12.7198 4.46248C12.7651 4.79681 12.7407 5.13691 12.648 5.46134C12.5554 5.78576 12.3965 6.08746 12.1814 6.34743C11.9664 6.60739 11.6998 6.81998 11.3984 6.97178L11.353 6.99621C10.8757 7.25319 10.3345 7.3675 9.79407 7.3255C9.87535 8.52473 10.1786 9.69843 10.6885 10.7869L12.3889 13.5493C12.9913 14.3512 13.7275 15.0432 14.5651 15.595C14.7743 14.9863 15.2065 14.4795 15.7745 14.1768L15.82 14.1523C16.4375 13.8151 17.1596 13.7231 17.842 13.8948C18.5243 14.0666 19.1168 14.4893 19.5012 15.0787L20.8891 17.3308C21.1872 17.8163 21.3035 18.3917 21.2173 18.9549C21.1311 19.518 20.848 20.0324 20.4183 20.4065Z" fill="#112832" stroke="#FFE600" stroke-width="2"/>
</svg>
