<svg width="24" height="24" viewBox="0 0 24 24" fill="none" xmlns="http://www.w3.org/2000/svg">
<path d="M16.325 18.8L14.125 21L12 18.875L14.2 16.675C14.1333 16.4917 14.0833 16.3 14.05 16.1C14.0167 15.9 14 15.7 14 15.5C14 14.5333 14.3417 13.7083 15.025 13.025C15.7083 12.3417 16.5333 12 17.5 12C17.8 12 18.0917 12.0375 18.375 12.1125C18.6583 12.1875 18.925 12.2917 19.175 12.425L16.8 14.8L18.2 16.2L20.575 13.85C20.7083 14.1 20.8125 14.3625 20.8875 14.6375C20.9625 14.9125 21 15.2 21 15.5C21 16.4667 20.6583 17.2917 19.975 17.975C19.2917 18.6583 18.4667 19 17.5 19C17.2833 19 17.0792 18.9833 16.8875 18.95C16.6958 18.9167 16.5083 18.8667 16.325 18.8ZM20.775 10H18.7C18.2667 8.53333 17.4417 7.33333 16.225 6.4C15.0083 5.46667 13.6 5 12 5C10.05 5 8.39583 5.67917 7.0375 7.0375C5.67917 8.39583 5 10.05 5 12C5 13.2 5.27083 14.3 5.8125 15.3C6.35417 16.3 7.08333 17.1167 8 17.75V15H10V21H4V19H6.35C5.31667 18.1667 4.5 17.1458 3.9 15.9375C3.3 14.7292 3 13.4167 3 12C3 10.75 3.2375 9.57917 3.7125 8.4875C4.1875 7.39583 4.82917 6.44583 5.6375 5.6375C6.44583 4.82917 7.39583 4.1875 8.4875 3.7125C9.57917 3.2375 10.75 3 12 3C14.15 3 16.0375 3.6625 17.6625 4.9875C19.2875 6.3125 20.325 7.98333 20.775 10Z" fill="#112832"/>
</svg>
