<?xml version="1.0" encoding="UTF-8"?>
<svg id="Warstwa_2" data-name="Warstwa 2" xmlns="http://www.w3.org/2000/svg" viewBox="0 0 99 99">
  <defs>
    <style>
      .cls-1 {
        fill: #ffe500;
        stroke-width: 3px;
      }

      .cls-1, .cls-2 {
        stroke: #112832;
        stroke-miterlimit: 10;
      }

      .cls-2 {
        fill: none;
        stroke-width: 2px;
      }
    </style>
  </defs>
  <path class="cls-1" d="M44.66,6.84s-21.94,25.41-25.36,31.8c-3.42,6.39-14.28,40.28-14.28,40.28-.73,1.51-.73,3.36,.14,4.93,.93,1.67,2.61,2.6,4.34,2.6,0,0,27.57,8.05,38.5,8.05s41.17-7.06,41.17-7.06c1.62,.1,3.26-.62,4.31-2.07,1.11-1.54,1.28-3.52,.6-5.17,0,0-7.59-24.99-15.79-39.67C70.11,25.85,53.19,7.1,53.19,7.1c-.87-1.56-2.49-2.6-4.34-2.6-1.75,0-3.29,.93-4.18,2.34Zm14.73,51.4c0,6.41-5,11.6-11.16,11.6s-11.16-5.19-11.16-11.6,5-11.6,11.16-11.6,11.16,5.19,11.16,11.6Z"/>
  <g>
    <ellipse class="cls-2" cx="48.23" cy="58.23" rx="33.03" ry="34.32"/>
    <ellipse class="cls-2" cx="48.23" cy="58.23" rx="17.43" ry="18.11"/>
  </g>
</svg>