<svg width="137" height="131" viewBox="0 0 137 131" fill="none" xmlns="http://www.w3.org/2000/svg">
<g id="ico_big_ksem" clip-path="url(#clip0_10152_575)">
<path id="Prostok&#196;&#133;t 13 kopia 5" fill-rule="evenodd" clip-rule="evenodd" d="M1.92969 1.43164H123.93V129.57H1.92969V1.43164Z" fill="white" stroke="#112832" stroke-width="3"/>
<g id="Kszta&#197;&#130;t 11">
<path fill-rule="evenodd" clip-rule="evenodd" d="M3.19727 43.0117L31.1373 43.0427L57.1123 49.9927L110.793 43.0427H121.183L122.915 65.6317L110.793 83.0077L105.593 89.9577H90.0133L65.7703 83.0077L39.7953 89.9577H29.4053L3.19727 89.9887" fill="#5D7077"/>
<path d="M3.19727 43.0117L31.1373 43.0427L57.1123 49.9927L110.793 43.0427H121.183L122.915 65.6317L110.793 83.0077L105.593 89.9577H90.0133L65.7703 83.0077L39.7953 89.9577H29.4053L3.19727 89.9887" stroke="#112832" stroke-width="2"/>
</g>
<g id="Kszta&#197;&#130;t 13">
<path fill-rule="evenodd" clip-rule="evenodd" d="M122.023 65.631V43.043H125.495L134.176 65.632L123.759 89.957H97.7168V73.691" fill="#FFE500"/>
<path d="M122.023 65.631V43.043H125.495L134.176 65.632L123.759 89.957H97.7168V73.691" stroke="#112832" stroke-width="2"/>
</g>
<path id="Kszta&#197;&#130;t 14" d="M132.44 63.8945L120.287 65.6325L61.2578 84.7455" stroke="#112832" stroke-width="2"/>
<path id="Kszta&#197;&#130;t 9 kopia" d="M2.23047 63.8941L57.7875 49.9941" stroke="#112832" stroke-width="2"/>
<path id="Kszta&#197;&#130;t 21 kopia" d="M3.22461 90.5H39.1946L66.6716 83L89.3036 90.494L123.231 90.5L134.616 66L125.116 42.5H110.131L57.1846 49.5L31.2066 42.5H3.22461" stroke="#112832" stroke-width="3"/>
</g>
<defs>
<clipPath id="clip0_10152_575">
<rect width="136" height="131" fill="white" transform="translate(0.429688)"/>
</clipPath>
</defs>
</svg>
