<?xml version="1.0" encoding="UTF-8"?>
<svg id="Warstwa_2" data-name="Warstwa 2" xmlns="http://www.w3.org/2000/svg" viewBox="0 0 99 99">
  <defs>
    <style>
      .cls-1 {
        fill: #ffe500;
        stroke-width: 3px;
      }

      .cls-1, .cls-2 {
        stroke: #112832;
        stroke-miterlimit: 10;
      }

      .cls-2 {
        fill: none;
        stroke-width: 2px;
      }
    </style>
  </defs>
  <path class="cls-1" d="M48.25,91.74c3.84,0,4.8,1.15,8.26,2.11,3.46,.96,5.96,.57,5.96,.57,0,0,9.8-1.53,17.49-1.53s8.84-5.94,8.84-5.94l2.69-12.84,.25-23.7c0-3.83,1.15-4.79,2.11-8.24,.96-3.45,.58-5.94,.58-5.94,0,0-1.54-9.77-1.54-17.43s-5.96-8.81-5.96-8.81h0c-8.56-1.78-17.28-2.69-26.02-2.71l-10.16-.03c-3.84,0-4.8-1.15-8.26-2.11-3.46-.96-5.96-.57-5.96-.57,0,0-9.8,1.53-17.49,1.53s-8.84,5.94-8.84,5.94l-2.69,12.84v20.31l-.25,3.39c0,3.83-1.15,4.79-2.11,8.24-.96,3.45-.58,5.94-.58,5.94,0,0,1.54,9.77,1.54,17.43s5.96,8.81,5.96,8.81h0c8.56,1.78,17.28,2.69,26.02,2.71l10.16,.03Zm1.24-25.43c-9.31,0-16.86-7.53-16.86-16.81s7.55-16.81,16.86-16.81,16.86,7.53,16.86,16.81-7.55,16.81-16.86,16.81Z"/>
  <g>
    <path class="cls-2" d="M79.4,75.34s.54,5.3-5.19,5.77c-4.42,.36-10.76,1.15-10.76,1.15,0,0-1.87,.29-4.45-.43s-3.35-2.08-6.23-2.08l-29.19-.43s-5.32,.54-5.79-5.17c-.36-4.41-1.15-10.73-1.15-10.73,0,0-.29-1.86,.43-4.44s2.09-3.34,2.09-6.21l.43-29.1s-.54-5.3,5.19-5.77c4.42-.36,10.76-1.15,10.76-1.15,0,0,1.87-.29,4.45,.43s3.35,2.08,6.23,2.08h17.95l11.24,.43s5.32-.54,5.79,5.17c.36,4.41,1.15,10.73,1.15,10.73,0,0,.29,1.86-.43,4.44s-2.09,3.34-2.09,6.21l-.43,29.1Z"/>
    <ellipse class="cls-2" cx="49.5" cy="49.5" rx="23.49" ry="23.42"/>
  </g>
</svg>