<svg width="137" height="131" viewBox="0 0 137 131" fill="none" xmlns="http://www.w3.org/2000/svg">
<g id="ico_big_vhm" clip-path="url(#clip0_10152_537)">
<path id="Prostok&#196;&#133;t 13 kopia 9" fill-rule="evenodd" clip-rule="evenodd" d="M1.78516 1.48828H123.785V129.51H1.78516V1.48828Z" fill="white" stroke="#112832" stroke-width="3"/>
<g id="Kszta&#197;&#130;t 11">
<path fill-rule="evenodd" clip-rule="evenodd" d="M3.30078 43L18.0278 43.043H27.4448L44.8038 49.993L72.5788 43.043H121.186L128.13 67.369L121.186 89.957H63.8988L41.3318 83.007L18.0318 89.957L3.30478 89.988" fill="#5D7077"/>
<path d="M3.30078 43L18.0278 43.043H27.4448L44.8038 49.993L72.5788 43.043H121.186L128.13 67.369L121.186 89.957H63.8988L41.3318 83.007L18.0318 89.957L3.30478 89.988" stroke="#112832" stroke-width="2"/>
</g>
<path id="Kszta&#197;&#130;t 12" d="M127.4 67.3689L121.242 65.6309L124.714 77.7939L121.242 88.2199" stroke="#112832" stroke-width="2"/>
<path id="Kszta&#197;&#130;t 9" d="M45.1758 50.8691L119.185 89.0821" stroke="#112832" stroke-width="2"/>
<path id="Kszta&#197;&#130;t 9 kopia" d="M1.00195 62L41.381 83.007" stroke="#112832" stroke-width="2"/>
<path id="Kszta&#197;&#130;t 16" fill-rule="evenodd" clip-rule="evenodd" d="M104.213 92L93.8555 67.379L102.487 58.587L99.0345 41H119.751L132.836 65.617L121.477 92H104.213Z" fill="#FFE500" stroke="#112832" stroke-width="2" stroke-linejoin="round"/>
<path id="Kszta&#197;&#130;t 17" d="M102.145 58.6816H112.257L129.112 73.3196" stroke="#112832" stroke-width="2" stroke-linejoin="round"/>
<path id="Elipsa 5 kopia 3" d="M110.817 77.7817C112.733 77.7817 114.286 76.2286 114.286 74.3128C114.286 72.3969 112.733 70.8438 110.817 70.8438C108.901 70.8438 107.348 72.3969 107.348 74.3128C107.348 76.2286 108.901 77.7817 110.817 77.7817Z" fill="#FFE500" stroke="#112832" stroke-width="2"/>
<path id="Kszta&#197;&#130;t 20" d="M2.5 42.5H26.485L45.469 50.5L72.444 42.5H99.919L100.856 40.5H119.84L133.829 65.5L121.838 92.5H105.852L103.91 90.441L63.449 90.5L42.466 83.5L12.491 90.5H2.5" stroke="#112832" stroke-width="3"/>
</g>
<defs>
<clipPath id="clip0_10152_537">
<rect width="136" height="131" fill="white" transform="translate(0.285156)"/>
</clipPath>
</defs>
</svg>
