<?xml version="1.0" encoding="UTF-8"?>
<svg id="Warstwa_2" data-name="Warstwa 2" xmlns="http://www.w3.org/2000/svg" viewBox="0 0 99 99">
  <defs>
    <style>
      .cls-1 {
        fill: #ffe500;
        stroke-width: 3px;
      }

      .cls-1, .cls-2 {
        stroke: #112832;
        stroke-miterlimit: 10;
      }

      .cls-2 {
        fill: none;
        stroke-width: 2px;
      }
    </style>
  </defs>
  <path class="cls-1" d="M81.41,69.04l.47-19.7V28s5.5-11.11,3.16-15.81c-1.64-1.41-1.28-1.31-8.08-2.96-6.8-1.64-26.73-4.69-26.73-4.69-.61-.12-1.62,0-1.62,0,0,0-19.93,3.05-26.73,4.69-6.8,1.64-6.24,1.67-7.89,3.07-2.35,4.69,2.96,15.69,2.96,15.69v21.34l.47,19.7s-3.75,10.08-3.75,14.31,5.86,6.1,5.86,6.1l29.08,4.92s.61,.29,1.62,0l29.08-4.92s5.86-1.88,5.86-6.1-3.75-14.31-3.75-14.31Zm-32-7.04c-7.11,0-12.87-5.76-12.87-12.87s5.76-12.87,12.87-12.87,12.87,5.76,12.87,12.87-5.76,12.87-12.87,12.87Z"/>
  <g>
    <path class="cls-2" d="M23.07,30.72v43.09c0,3.81,3.87,4.05,3.87,4.05l22.92,3.28,19.76-3.34s-.53-4.1,2.4-6.16c2.93-2.05,3.93-.88,3.87-1.64s.18-.94,.18-.94V25.09c0-3.75-3.34-4.22-3.34-4.22,0,0-18.82-3.28-23.1-3.28l-21.53,2.87"/>
    <circle class="cls-2" cx="49.41" cy="49.5" r="18.15"/>
    <path class="cls-2" d="M76.24,9.21s4.1,2.4,5.1,4.75,.94,12.31,.94,12.31"/>
    <path class="cls-2" d="M22.36,8.21s-4.1,2.4-5.1,4.75-.94,12.31-.94,12.31c0,0,4.46,4.16,5.8,4.4s5.28-.76,6.51-4.05,.47-4.98,.47-4.98l-11.55-7.5"/>
    <path class="cls-2" d="M76.24,89.91s4.1-2.4,5.1-4.75,.94-12.31,.94-12.31c0,0-.94-3.25-5.69-3.54"/>
    <path class="cls-2" d="M22.36,89.91s-4.1-2.4-5.1-4.75-.94-12.31-.94-12.31"/>
    <path class="cls-2" d="M27.76,43.1c-.39,0-.18-2.52-.18-4.98v-4.05s8.56-4.46,13.43-6.74c4.87-2.29,6.57-3.75,11.9-3.75s7.09,.7,7.09,1.58-.23,1.7-.41,1.7h-2.99c-1.64,0-3.31-.45-11.08,3.11-2.81,1.29-6.02,4.79-11.2,9.03-4.97,4.07-3.17,4.14-6.57,4.1Z"/>
    <path class="cls-2" d="M71.31,56.64c.39,0,.18,2.52,.18,4.98v4.05s-8.56,4.46-13.43,6.74c-4.87,2.29-6.57,3.75-11.9,3.75s-7.09-.7-7.09-1.58,.23-1.7,.41-1.7h2.99c1.64,0,3.31,.45,11.08-3.11,2.81-1.29,6.02-4.79,11.2-9.03,4.97-4.07,3.17-4.14,6.57-4.1Z"/>
    <line class="cls-2" x1="69.85" y1="77.51" x2="74.95" y2="82.14"/>
  </g>
</svg>