<?xml version="1.0" encoding="UTF-8"?>
<svg id="Warstwa_2" data-name="Warstwa 2" xmlns="http://www.w3.org/2000/svg" viewBox="0 0 99 99">
  <defs>
    <style>
      .cls-1 {
        fill: #ffe500;
        stroke-width: 3px;
      }

      .cls-1, .cls-2 {
        stroke: #112832;
        stroke-miterlimit: 10;
      }

      .cls-2 {
        fill: none;
        stroke-width: 2px;
      }
    </style>
  </defs>
  <path class="cls-1" d="M49.62,12.18l-.06,.02L4.5,27.67v31.84s22.9,19.09,27.66,22.74c4.76,3.65,3.81,4.55,6.82,4.55s5.29-4.39,11.27-4.39h.16c5.98,.01,8.25,4.4,11.27,4.4s2.07-.89,6.78-4.51c.01-.01,.03-.02,.04-.03l26-22.55V27.78L49.62,12.18Zm8.9,49.38c-7.25,0-13.13-4.39-13.13-9.8s5.88-9.8,13.13-9.8,13.13,4.39,13.13,9.8-5.88,9.8-13.13,9.8Z"/>
  <g>
    <path class="cls-2" d="M16.51,23.87s-.71,24.68-.48,45.07"/>
    <path class="cls-2" d="M36.34,16.96s2.06,17.46,2.78,21.66c.79,.48,3.25-4.21,9.04-10.71,0,0,4.44-5.16,6.19-7.06,1.07-1.17,.58-.03,3.49,.48l30.55,10.87v32.76"/>
    <path class="cls-2" d="M49.04,12.84s-6.35,12.93-9.6,24.99c-.71,2.38-2.46,47.76-2.46,47.76"/>
    <line class="cls-2" x1="48.8" y1="12.84" x2="55.07" y2="20.58"/>
  </g>
</svg>