<?xml version="1.0" encoding="UTF-8"?>
<svg id="Warstwa_2" data-name="Warstwa 2" xmlns="http://www.w3.org/2000/svg" viewBox="0 0 99 99">
  <defs>
    <style>
      .cls-1 {
        fill: #ffe500;
        stroke-width: 3px;
      }

      .cls-1, .cls-2 {
        stroke: #112832;
        stroke-miterlimit: 10;
      }

      .cls-2 {
        fill: none;
        stroke-width: 2px;
      }
    </style>
  </defs>
  <path class="cls-1" d="M50.62,92.69h4.91s0-6.48,0-6.48l2.94-3.53h15.7s6.28-2.75,6.28-2.75l3.14-10.79-5.49-2.35,1.96-7.65s1.77-5.1,5.1-5.1h7.85s2.75-10.79,.78-32.38c-20.02-7.26-35.13-11.58-39.05-13.54l-.86-.59c-4.12-1.96-5.69-1.37-9.62,.59S25.22,14.39,5.21,21.65c-1.96,21.59,.78,32.38,.78,32.38h7.85c3.34,0,5.1,5.1,5.1,5.1l1.96,7.65-5.49,2.35,3.14,10.79,6.28,2.75h15.7l2.94,3.53v6.48h7.14Z"/>
  <g>
    <polyline class="cls-2" points="32.88 82.49 30.92 78.56 32.49 68.94 37 66 37.78 54.82"/>
    <path class="cls-2" d="M82.73,55.01H32.68s5.3-15.31,8.44-23.16c3.14-7.85,2.81-7.74,9.42-12.36,5.89-4.12,14.13-7.65,14.13-7.65"/>
    <line class="cls-2" x1="32.19" y1="76.7" x2="82.82" y2="76.7"/>
    <line class="cls-2" x1="35.72" y1="66.49" x2="78.21" y2="66.49"/>
    <path class="cls-2" d="M33.47,54.23s13.15-23.16,16.29-25.9,5.1-7.06,15.7-7.06h27.39"/>
    <line class="cls-2" x1="49.17" y1="54.42" x2="49.17" y2="66.2"/>
    <line class="cls-2" x1="56.44" y1="54.42" x2="56.44" y2="66.2"/>
    <line class="cls-2" x1="63.71" y1="54.42" x2="63.71" y2="66.2"/>
    <polyline class="cls-2" points="68.02 65.22 68.02 76.99 64.28 82.49"/>
    <polyline class="cls-2" points="44.94 66.25 44.94 79.07 48.69 84.56"/>
    <line class="cls-2" x1="43.87" y1="85.43" x2="55.52" y2="85.43"/>
  </g>
</svg>