<svg width="137" height="131" viewBox="0 0 137 131" fill="none" xmlns="http://www.w3.org/2000/svg">
<g id="ico_big_amec" clip-path="url(#clip0_10152_564)">
<path id="Prostok&#196;&#133;t 13 kopia 4" fill-rule="evenodd" clip-rule="evenodd" d="M2.21484 1.35156H124.215V129.652H2.21484V1.35156Z" fill="white" stroke="#112832" stroke-width="3"/>
<path id="Kszta&#197;&#130;t 13" fill-rule="evenodd" clip-rule="evenodd" d="M96.7246 105V27.0002L111.704 26.9062L134.215 66.8693L113.436 105.1L96.7246 105Z" fill="#FFE500" stroke="#112832" stroke-width="2"/>
<path id="Kszta&#197;&#130;t 11" fill-rule="evenodd" clip-rule="evenodd" d="M2.72484 43L18.0038 43.043V43.011L28.6398 43.042L45.9568 49.992L73.6628 43.042L97.7148 43.011V49.992H110.024L123.877 67.368L110.027 89.957H65.0038L42.4918 83.007L19.9798 89.957L2.71484 90L2.72484 43Z" fill="#5D7077" stroke="#112832" stroke-width="2"/>
<path id="Kszta&#197;&#130;t 14" d="M122.726 69.1052H84.1508L46.0508 49.9922" stroke="#112832" stroke-width="2"/>
<path id="Kszta&#197;&#130;t 9 kopia" d="M2.75195 63.8945L42.585 83.0075" stroke="#112832" stroke-width="2"/>
<path id="Kszta&#197;&#130;t 21" d="M1.64844 42.5H28.5624L46.5034 49.5L72.4184 42.5H97.3254V26.5H112.273L134.714 67L113.205 105.5H97.4404V90.333L95.9534 90.494H65.5914L43.0144 83L18.5954 90.5H1.64844" stroke="#112832" stroke-width="3"/>
</g>
<defs>
<clipPath id="clip0_10152_564">
<rect width="136" height="131" fill="white" transform="translate(0.714844)"/>
</clipPath>
</defs>
</svg>
