<svg width="100%" height="100%" style="overflow:visible;" preserveAspectRatio="none" viewBox="0 0 25.67 22" fill="none" xmlns="http://www.w3.org/2000/svg">
<g clip-path="url(#clip0_1_918)">
<path fill-rule="evenodd" clip-rule="evenodd" d="M3.66667 0.921875H22C22.7293 0.921875 23.4288 1.21161 23.9445 1.72733C24.4603 2.24306 24.75 2.94253 24.75 3.67188V18.3385C24.75 19.0679 24.4603 19.7674 23.9445 20.2831C23.4288 20.7988 22.7293 21.0885 22 21.0885H3.66667C2.93732 21.0885 2.23785 20.7988 1.72212 20.2831C1.2064 19.7674 0.916668 19.0679 0.916668 18.3385V3.67188C0.916668 2.94253 1.2064 2.24306 1.72212 1.72733C2.23785 1.21161 2.93732 0.921875 3.66667 0.921875Z" fill="#112832" stroke="#FFE600" stroke-width="2"/>
<path d="M25.0479 4.58838L14.1873 14.5305C13.8281 14.8896 13.3411 15.0913 12.8333 15.0913C12.3255 15.0913 11.8385 14.8896 11.4794 14.5305L0.618752 4.58838" stroke="#FFE600" stroke-width="2"/>
</g>
<defs>
<clipPath id="clip0_1_918">
<rect width="25.6667" height="22" fill="white" transform="translate(0 0.00512695)"/>
</clipPath>
</defs>
</svg>
