<?xml version="1.0" encoding="UTF-8"?>
<svg id="Warstwa_2" data-name="Warstwa 2" xmlns="http://www.w3.org/2000/svg" viewBox="0 0 99 99">
  <defs>
    <style>
      .cls-1 {
        fill: #ffe500;
        stroke-width: 3px;
      }

      .cls-1, .cls-2 {
        stroke: #112832;
        stroke-miterlimit: 10;
      }

      .cls-2 {
        fill: none;
        stroke-width: 2px;
      }
    </style>
  </defs>
  <path class="cls-1" d="M4.5,48.63v5.29l2.68,1.56h7.82v7c0,3.43,4.69,3.5,4.69,3.5h24.81v18.94c0,1.51,.54,2.67,1.24,3.53,1.17,1.44,2.99,2.2,4.85,2.2h25.5c2.46,0,3.83-3.34,3.83-3.34l14.57-39.13-14.57-36.53s-1.37-4.34-3.83-4.34h-25.5c-1.86,0-3.68,.75-4.85,2.2-.7,.86-1.24,2.02-1.24,3.53V31.96H19.7s-4.69,.07-4.69,3.5v7H7.18l-2.68,1.56v4.59Z"/>
  <g>
    <line class="cls-2" x1="12.92" y1="42.96" x2="12.92" y2="54.81"/>
    <path class="cls-2" d="M56.68,91.7v-4.63s-.3-1.56,2.16-1.56h12.22l5.74-9.98s1.27-2.46,2.68-2.46,4.22,.97,4.22,.97"/>
    <path class="cls-2" d="M70.58,84.91v-10.06l8.49-7.23s1.79-.6,1.79-3.95-.07-4.25-.07-4.25c0,0-.07-1.64,1.94-2.68,1.34-.69,3.65-1.86,3.65-1.86v-3.13h6.85"/>
    <path class="cls-2" d="M88.47,31.86l-15.05,3.8s-4.25,1.71-4.25,5.59,1.71,4.17,1.71,4.17v1.71h-5.29s-11.56-3.87-20.73-5.22c-4.17,4.17-4.77,4.84-4.77,4.84v19.22"/>
    <polyline class="cls-2" points="45.4 42.66 45.4 66.58 79.45 66.58"/>
    <line class="cls-2" x1="44.88" y1="75.67" x2="69.76" y2="75.67"/>
    <path class="cls-2" d="M15,37s25.85-.67,54.46,1.64"/>
    <line class="cls-2" x1="67.68" y1="47.51" x2="80.87" y2="57.42"/>
    <line class="cls-2" x1="86.01" y1="51.61" x2="70.06" y2="43.63"/>
    <line class="cls-2" x1="92.34" y1="43.78" x2="74.98" y2="35.29"/>
    <path class="cls-2" d="M20.89,66.06v-7.3s4.92-1.04,5.36-7.45v-3.43h2.68v17.88"/>
  </g>
</svg>