<?xml version="1.0" encoding="UTF-8"?>
<svg id="Warstwa_2" data-name="Warstwa 2" xmlns="http://www.w3.org/2000/svg" viewBox="0 0 99 99">
  <defs>
    <style>
      .cls-1 {
        fill: #ffe500;
        stroke-width: 3px;
      }

      .cls-1, .cls-2 {
        stroke: #112832;
        stroke-miterlimit: 10;
      }

      .cls-2 {
        fill: none;
        stroke-width: 2px;
      }
    </style>
  </defs>
  <path class="cls-1" d="M81.1,73.58s-19.18,0-21.45,0-2.52-1.77-2.52-1.77v-4.92c0-2.52-2.65-1.89-2.65-1.89h-5.05s-5.3,0-5.3,0c0,0-2.65-.63-2.65,1.89v4.92s-.25,1.77-2.52,1.77H7.41s-2.9,.5-2.9-2.4v-26.88s-.38-3.28,3.41-4.54,42.14-14.38,42.14-14.38l11.1,1.64,31.44,12.13s1.89,.5,1.89,2.9v27.24s-.26,4.29-4.87,4.29h-8.53Z"/>
  <g>
    <circle class="cls-2" cx="18.2" cy="60.15" r="5.36"/>
    <circle class="cls-2" cx="79.15" cy="60.4" r="5.36"/>
    <path class="cls-2" d="M38.71,29.55s1.77,3.03,.38,6.69c-1.39,3.66-3.28,6.18-3.03,7.32s8.96-5.17,8.96-5.17c.58-.06,13.78-5.41,13.75-5.55-.19-1.02-8.71-7.44-8.71-7.44"/>
    <polyline class="cls-2" points="5.52 52.01 36.81 43.68 52.71 29.42 86.91 43.55 89.68 45.07 89.68 73.08"/>
    <line class="cls-2" x1="69.62" y1="29.67" x2="69.62" y2="36.23"/>
    <line class="cls-2" x1="78.2" y1="33.71" x2="78.2" y2="40.27"/>
    <line class="cls-2" x1="86.4" y1="36.61" x2="86.4" y2="43.17"/>
  </g>
</svg>