<?xml version="1.0" encoding="UTF-8"?>
<svg id="Warstwa_2" data-name="Warstwa 2" xmlns="http://www.w3.org/2000/svg" viewBox="0 0 99 99">
  <defs>
    <style>
      .cls-1 {
        fill: #ffe500;
        stroke-width: 3px;
      }

      .cls-1, .cls-2 {
        stroke: #112832;
        stroke-miterlimit: 10;
      }

      .cls-2 {
        fill: none;
        stroke-width: 2px;
      }
    </style>
  </defs>
  <path class="cls-1" d="M50.43,94.29,7.07,17.94c-1.56,.67-2.65,2.25-2.57,3.99,.03,.6,.16,2.24,.39,2.79,0,0,9.44,38.07,9.88,39.26,.38,1.05,22.43,20.09,28.14,25.19l5.72,4.69c1.05,.86,2.55,.84,3.58-.04l5.41-4.65c7.62-7.05,26.8-24.86,27.15-25.94s5.61-23.28,7.81-33.03c.41-1.8,.89-4.64,1.46-6.39l.26-.8c.64-1.99-.24-4.15-2.05-5.09h0c-2.52-1.3-5.14-2.36-7.84-3.2-10.82-3.35-33.24-10.24-34.34-10.24-1.16,0-26.3,7.75-36.29,10.85-1.65,.51-3.26,1.11-4.85,1.79l-1.85,.8Zm28.01,29.41c-1.17-9.59,6.66-17.65,15.97-16.45,6.35,.82,11.47,6.1,12.27,12.63,1.17,9.59-6.66,17.65-15.97,16.45-6.35-.82-11.47-6.1-12.27-12.63Z"/>
  <g>
    <ellipse class="cls-2" cx="49.34" cy="45.53" rx="21.19" ry="21.81"/>
    <ellipse class="cls-2" cx="60.18" cy="78.78" rx="5.66" ry="5.83"/>
    <ellipse class="cls-2" cx="74" cy="66.42" rx="5.66" ry="5.83"/>
    <ellipse class="cls-2" cx="81.68" cy="50.9" rx="5.66" ry="5.83"/>
    <ellipse class="cls-2" cx="86.29" cy="33.27" rx="5.66" ry="5.83"/>
    <ellipse class="cls-2" cx="40.21" cy="78.78" rx="5.66" ry="5.83"/>
    <ellipse class="cls-2" cx="25.36" cy="66.42" rx="5.66" ry="5.83"/>
    <ellipse class="cls-2" cx="17.68" cy="50.9" rx="5.66" ry="5.83"/>
    <ellipse class="cls-2" cx="13.07" cy="33.27" rx="5.66" ry="5.83"/>
    <ellipse class="cls-2" cx="24.32" cy="18.46" rx="5.66" ry="5.83"/>
    <ellipse class="cls-2" cx="41.1" cy="12.64" rx="5.66" ry="5.83"/>
    <ellipse class="cls-2" cx="59.39" cy="12.64" rx="5.66" ry="5.83"/>
    <ellipse class="cls-2" cx="77.06" cy="18.46" rx="5.66" ry="5.83"/>
  </g>
</svg>