<svg width="136" height="131" viewBox="0 0 136 131" fill="none" xmlns="http://www.w3.org/2000/svg">
<g id="ico_big_sandvik" clip-path="url(#clip0_10152_551)">
<path id="Prostok&#196;&#133;t 13 kopia 10" fill-rule="evenodd" clip-rule="evenodd" d="M1.5 1.48828H123.5V129.51H1.5V1.48828Z" fill="white" stroke="#112832" stroke-width="3"/>
<g id="Prostok&#196;&#133;t 8">
<path fill-rule="evenodd" clip-rule="evenodd" d="M3 43.0852L32.95 43.0062L66.931 48.4922L96.731 43.0722L130.38 42.9922V89.7832L85.443 89.8582L49.643 83.0832L20.743 89.9662L3 90.0002" fill="#5D7077"/>
<path d="M3 43.0852L32.95 43.0062L66.931 48.4922L96.731 43.0722L130.38 42.9922V89.7832L85.443 89.8582L49.643 83.0832L20.743 89.9662L3 90.0002" stroke="#112832" stroke-width="2"/>
</g>
<path id="Prostok&#196;&#133;t 11" fill-rule="evenodd" clip-rule="evenodd" d="M109.971 38H134.012V64H109.971V38Z" fill="#FFE500" stroke="#112832" stroke-width="2"/>
<path id="Elipsa 5" d="M122.375 54.7193C124.291 54.7193 125.844 53.1661 125.844 51.2503C125.844 49.3344 124.291 47.7812 122.375 47.7812C120.459 47.7812 118.906 49.3344 118.906 51.2503C118.906 53.1661 120.459 54.7193 122.375 54.7193Z" fill="#FFE500" stroke="#112832" stroke-width="2"/>
<path id="Elipsa 5 kopia" d="M121.625 76.313C123.541 76.313 125.094 74.7599 125.094 72.844C125.094 70.9281 123.541 69.375 121.625 69.375C119.709 69.375 118.156 70.9281 118.156 72.844C118.156 74.7599 119.709 76.313 121.625 76.313Z" fill="#112832"/>
<path id="Kszta&#197;&#130;t 9" d="M60.8184 47.5176L106.745 67.6316L110.692 62.6816" stroke="#112832" stroke-width="2"/>
<path id="Kszta&#197;&#130;t 9 kopia" d="M1.09961 60.4688L50.1866 83.2687" stroke="#112832" stroke-width="2"/>
<path id="Prostok&#196;&#133;t 12" d="M2.07422 42.5H32.0502L64.0242 47.5L96.0002 42.5H109.228L109.503 39.755V37.5H134.503V64.5H130.633V90.5H88.0002L50.0312 83.5L19.0572 90.5H2.07422" stroke="#112832" stroke-width="3"/>
</g>
<defs>
<clipPath id="clip0_10152_551">
<rect width="136" height="131" fill="white"/>
</clipPath>
</defs>
</svg>
