<svg width="137" height="131" viewBox="0 0 137 131" fill="none" xmlns="http://www.w3.org/2000/svg">
<g id="ico_big_plytkowe" clip-path="url(#clip0_10152_523)">
<path id="Prostok&#196;&#133;t 13 kopia 8" fill-rule="evenodd" clip-rule="evenodd" d="M2.07227 1.48828H124.072V129.51H2.07227V1.48828Z" fill="white" stroke="#112832" stroke-width="3"/>
<path id="Prostok&#196;&#133;t 8" fill-rule="evenodd" clip-rule="evenodd" d="M76.3515 90.9757L42.7055 83.0077L12.1435 89.9607L2.43555 89.9897V43.0117L25.9105 43.0377L44.4415 49.9937L75.0725 43.0257L135.588 43.0117V90.9897L76.3515 90.9757Z" fill="#5D7077" stroke="#112832" stroke-width="2"/>
<path id="Prostok&#196;&#133;t 11" fill-rule="evenodd" clip-rule="evenodd" d="M112.334 66.9941H134.311V89.9891H112.334V66.9941Z" fill="#FFE500" stroke="#112832" stroke-width="2"/>
<path id="Elipsa 5" d="M124.323 82.0005C126.238 82.0005 127.792 80.4474 127.792 78.5315C127.792 76.6156 126.238 75.0625 124.323 75.0625C122.407 75.0625 120.854 76.6156 120.854 78.5315C120.854 80.4474 122.407 82.0005 124.323 82.0005Z" fill="#FFE500" stroke="#112832" stroke-width="2"/>
<path id="Elipsa 5 kopia" d="M124.323 58.6724C126.238 58.6724 127.792 57.1192 127.792 55.2034C127.792 53.2875 126.238 51.7344 124.323 51.7344C122.407 51.7344 120.854 53.2875 120.854 55.2034C120.854 57.1192 122.407 58.6724 124.323 58.6724Z" fill="#112832"/>
<path id="Kszta&#197;&#130;t 10" d="M99.0254 70.8438L104.234 76.0567V89.9567" stroke="#112832" stroke-width="2"/>
<path id="Kszta&#197;&#130;t 9" d="M43.4727 83.0071L111.445 67.3691" stroke="#112832" stroke-width="2"/>
<path id="Kszta&#197;&#130;t 9 kopia" d="M1.80078 58.6802L46.9408 49.9922" stroke="#112832" stroke-width="2"/>
<path id="Kszta&#197;&#130;t 19" d="M1.93164 42.5H23.9136L42.8976 50.5L74.8726 42.5H134.821V90.5H75.8726L42.8996 83.5L12.9246 90.5H1.93164" stroke="#112832" stroke-width="3"/>
</g>
<defs>
<clipPath id="clip0_10152_523">
<rect width="136" height="131" fill="white" transform="translate(0.572266)"/>
</clipPath>
</defs>
</svg>
