<?xml version="1.0" encoding="UTF-8"?>
<svg id="Warstwa_2" data-name="Warstwa 2" xmlns="http://www.w3.org/2000/svg" viewBox="0 0 99 99">
  <defs>
    <style>
      .cls-1 {
        fill: #ffe500;
        stroke-width: 3px;
      }

      .cls-1, .cls-2 {
        stroke: #112832;
        stroke-miterlimit: 10;
      }

      .cls-2 {
        fill: none;
        stroke-width: 2px;
      }
    </style>
  </defs>
  <path class="cls-1" d="M19.14,71.14l13.52-4.74v26.8l27.27,.71,16.84-38.42s3.08-3.08,3.08-7.11-3.08-7.35-3.08-7.35L59.93,4.5l-27.27,.71v26.8l-13.52-4.74v43.87Z"/>
  <g>
    <path class="cls-2" d="M45.35,92.37v-17.79s1.6-5.69-6.4-5.69h-5.16"/>
    <path class="cls-2" d="M59.4,94.5l-2.85-16.72s4.09-5.51-2.31-11.74-6.23-12.63-1.25-18.5"/>
    <path class="cls-2" d="M68.28,43.45s4.45,4.62,3.38,14.58c-2.13,14.23-15.65,19.57-15.65,19.57h-11.56"/>
    <path class="cls-2" d="M79.32,45.41l-7.29-1.96s-5.34,3.91-26.86,3.91V19.84"/>
    <polyline class="cls-2" points="55.82 5.21 57.25 21.4 70.52 43.74"/>
    <path class="cls-2" d="M32.72,20.15s8.43-.89,25.33,1.25"/>
  </g>
</svg>