<svg width="137" height="131" viewBox="0 0 137 131" fill="none" xmlns="http://www.w3.org/2000/svg">
<g id="ico_big_all" clip-path="url(#clip0_10152_586)">
<path id="Prostok&#196;&#133;t 13 kopia 6" fill-rule="evenodd" clip-rule="evenodd" d="M1.64258 1.41992H129.643V129.58H1.64258V1.41992Z" fill="#F5F5F8" stroke="#112832" stroke-width="3"/>
<path id="Kszta&#197;&#130;t 8 kopia 2" fill-rule="evenodd" clip-rule="evenodd" d="M43.3518 42.1999L36.2188 25.9629H24.3298V31.7629L19.5738 34.0829L18.3848 43.3599L26.7068 45.1999L30.2738 57.9579H36.2188L43.3518 42.1999Z" fill="#FFE500" stroke="#112832" stroke-width="2"/>
<path id="Kszta&#197;&#130;t 16 kopia 2" fill-rule="evenodd" clip-rule="evenodd" d="M95.4282 58L89.1582 42.554L94.3832 37.038L92.2932 26H104.832L112.143 41.448L105.877 58H95.4282Z" fill="#FFE500" stroke="#112832" stroke-width="2" stroke-linejoin="round"/>
<path id="Prostok&#196;&#133;t 11 kopia 3" fill-rule="evenodd" clip-rule="evenodd" d="M20.1328 82H42.1328V106H20.1328V82Z" fill="#FFE500" stroke="#112832" stroke-width="2"/>
<path id="Elipsa 6 kopia 2" d="M31.1426 97C32.7994 97 34.1426 95.6569 34.1426 94C34.1426 92.3431 32.7994 91 31.1426 91C29.4857 91 28.1426 92.3431 28.1426 94C28.1426 95.6569 29.4857 97 31.1426 97Z" fill="#FFE500" stroke="#112832" stroke-width="2"/>
<path id="Prostok&#196;&#133;t 11 kopia 3_2" fill-rule="evenodd" clip-rule="evenodd" d="M56.1328 25H78.1328V49H56.1328V25Z" fill="#FFE500" stroke="#112832" stroke-width="2"/>
<path id="Elipsa 6 kopia 2_2" d="M67.1426 41C68.7994 41 70.1426 39.6569 70.1426 38C70.1426 36.3431 68.7994 35 67.1426 35C65.4857 35 64.1426 36.3431 64.1426 38C64.1426 39.6569 65.4857 41 67.1426 41Z" fill="#FFE500" stroke="#112832" stroke-width="2"/>
<path id="Kszta&#197;&#130;t 13 kopia 2" fill-rule="evenodd" clip-rule="evenodd" d="M59.373 105.154V74.3926H64.837L73.716 90.1156L65.516 105.155L59.373 105.154Z" fill="#FFE500" stroke="#112832" stroke-width="2"/>
<path id="Kszta&#197;&#130;t 13 kopia 2_2" fill-rule="evenodd" clip-rule="evenodd" d="M105.206 89.4391V74.0391H107.491L113.204 89.4391L106.348 106.024H89.2109V94.9341C89.2109 93.5221 105.206 89.4391 105.206 89.4391Z" fill="#FFE500" stroke="#112832" stroke-width="2"/>
</g>
<defs>
<clipPath id="clip0_10152_586">
<rect width="136" height="131" fill="white" transform="translate(0.142578)"/>
</clipPath>
</defs>
</svg>
