<?xml version="1.0" encoding="utf-8"?>
<!-- Generator: Adobe Illustrator 27.0.0, SVG Export Plug-In . SVG Version: 6.00 Build 0)  -->
<svg version="1.1" id="Warstwa_2_00000029767014777022983450000000968562275869598630_"
	 xmlns="http://www.w3.org/2000/svg" xmlns:xlink="http://www.w3.org/1999/xlink" x="0px" y="0px" viewBox="0 0 99 99"
	 style="enable-background:new 0 0 99 99;" xml:space="preserve">
<style type="text/css">
	.st0{fill:#FFE500;stroke:#112832;stroke-width:3;stroke-miterlimit:10;}
	.st1{fill:none;stroke:#112832;stroke-width:2;stroke-miterlimit:10;}
</style>
<path class="st0" d="M7.1,17.9c-1.6,0.7-2.7,2.2-2.6,4c0,0.6,0.2,2.2,0.4,2.8c0,0,9.4,38.1,9.9,39.3c0.4,1,22.4,20.1,28.1,25.2
	l5.7,4.7c1,0.9,2.5,0.8,3.6,0l5.4-4.7c7.6-7.1,26.8-24.9,27.1-25.9s5.6-23.3,7.8-33c0.4-1.8,0.9-4.6,1.5-6.4l0.3-0.8
	c0.6-2-0.2-4.1-2.1-5.1l0,0c-2.5-1.3-5.1-2.4-7.8-3.2C73.6,11.4,51.2,4.5,50.1,4.5c-1.2,0-26.3,7.8-36.3,10.9
	c-1.6,0.5-3.3,1.1-4.9,1.8L7.1,17.9"/>
<g>
	<ellipse class="st1" cx="49.3" cy="45.5" rx="21.2" ry="21.8"/>
	<ellipse class="st1" cx="60.2" cy="78.8" rx="5.7" ry="5.8"/>
	<ellipse class="st1" cx="74" cy="66.4" rx="5.7" ry="5.8"/>
	<ellipse class="st1" cx="81.7" cy="50.9" rx="5.7" ry="5.8"/>
	<ellipse class="st1" cx="86.3" cy="33.3" rx="5.7" ry="5.8"/>
	<ellipse class="st1" cx="40.2" cy="78.8" rx="5.7" ry="5.8"/>
	<ellipse class="st1" cx="25.4" cy="66.4" rx="5.7" ry="5.8"/>
	<ellipse class="st1" cx="17.7" cy="50.9" rx="5.7" ry="5.8"/>
	<ellipse class="st1" cx="13.1" cy="33.3" rx="5.7" ry="5.8"/>
	<ellipse class="st1" cx="24.3" cy="18.5" rx="5.7" ry="5.8"/>
	<ellipse class="st1" cx="41.1" cy="12.6" rx="5.7" ry="5.8"/>
	<ellipse class="st1" cx="59.4" cy="12.6" rx="5.7" ry="5.8"/>
	<ellipse class="st1" cx="77.1" cy="18.5" rx="5.7" ry="5.8"/>
</g>
</svg>
