<?xml version="1.0" encoding="UTF-8"?>
<svg id="Warstwa_2" data-name="Warstwa 2" xmlns="http://www.w3.org/2000/svg" viewBox="0 0 99 99">
  <defs>
    <style>
      .cls-1 {
        fill: #ffe500;
        stroke-width: 3px;
      }

      .cls-1, .cls-2 {
        stroke: #112832;
        stroke-miterlimit: 10;
      }

      .cls-2 {
        fill: none;
        stroke-width: 2px;
      }
    </style>
  </defs>
  <path class="cls-1" d="M87.27,4.5H11.73c-4,0-7.23,3.2-7.23,7.14V87.36c0,3.94,3.24,7.14,7.23,7.14H87.27c4,0,7.23-3.2,7.23-7.14V11.64c0-3.94-3.24-7.14-7.23-7.14ZM51.76,68.6c-10.83,0-19.61-8.66-19.61-19.35s8.78-19.35,19.61-19.35,19.61,8.66,19.61,19.35-8.78,19.35-19.61,19.35Z"/>
  <g>
    <rect class="cls-2" x="17.88" y="16.5" width="63.24" height="66" rx=".51" ry=".51"/>
    <ellipse class="cls-2" cx="49.5" cy="49.5" rx="31.55" ry="31.13"/>
    <line class="cls-2" x1="18.03" y1="68.6" x2="10.14" y2="68.6"/>
    <line class="cls-2" x1="18.03" y1="47.43" x2="10.14" y2="47.43"/>
    <line class="cls-2" x1="18.03" y1="28.38" x2="10.14" y2="28.38"/>
    <line class="cls-2" x1="88.83" y1="68.6" x2="80.94" y2="68.6"/>
    <line class="cls-2" x1="88.83" y1="47.43" x2="80.94" y2="47.43"/>
    <line class="cls-2" x1="88.83" y1="28.38" x2="80.94" y2="28.38"/>
    <line class="cls-2" x1="28.03" y1="17.45" x2="28.03" y2="9.67"/>
    <line class="cls-2" x1="49.49" y1="17.45" x2="49.49" y2="9.67"/>
    <line class="cls-2" x1="68.8" y1="17.45" x2="68.8" y2="9.67"/>
    <line class="cls-2" x1="28.03" y1="89.43" x2="28.03" y2="81.64"/>
    <line class="cls-2" x1="49.49" y1="89.43" x2="49.49" y2="81.64"/>
    <line class="cls-2" x1="68.8" y1="89.43" x2="68.8" y2="81.64"/>
    <path class="cls-2" d="M82.97,9.67H16.03c-3.54,0-6.41,2.83-6.41,6.33V83.1c0,3.49,2.87,6.33,6.41,6.33H82.97c3.54,0,6.41-2.83,6.41-6.33V15.99c0-3.49-2.87-6.33-6.41-6.33Z"/>
  </g>
</svg>