<?xml version="1.0" encoding="UTF-8"?>
<svg id="Warstwa_2" data-name="Warstwa 2" xmlns="http://www.w3.org/2000/svg" viewBox="0 0 99 99">
  <defs>
    <style>
      .cls-1 {
        fill: #ffe500;
        stroke-width: 3px;
      }

      .cls-1, .cls-2 {
        stroke: #112832;
        stroke-miterlimit: 10;
      }

      .cls-2 {
        fill: none;
        stroke-width: 2px;
      }
    </style>
  </defs>
  <path class="cls-1" d="M90.27,20.63l-6.99-6.99-.7-.7-32.6-4.23h-.97L16.42,12.93l-6.99,6.99-.7,.7L4.5,53.22v.97l4.23,32.6,6.99,6.99,.7,.7,32.6,4.23h.97l32.6-4.23,6.99-6.99,.7-.7,4.23-32.6v-.97l-4.23-32.6Zm-40.77,55.63c-12.45,0-22.55-10.1-22.55-22.55s10.1-22.55,22.55-22.55,22.55,10.1,22.55,22.55-10.1,22.55-22.55,22.55Z"/>
  <g>
    <circle class="cls-2" cx="49.5" cy="53.71" r="29.71"/>
    <g>
      <polyline class="cls-2" points="9.13 24.76 19.77 24.76 19.77 12.37"/>
      <polyline class="cls-2" points="9.13 82.66 19.77 82.66 19.77 95.05"/>
      <polyline class="cls-2" points="89.87 82.66 79.23 82.66 79.23 95.05"/>
      <polygon class="cls-2" points="50.1 18.12 79.1 24.82 79.55 25.27 85.23 53.24 85.23 54.17 79.55 82.14 79.1 82.6 50.1 89.3 48.9 89.3 19.9 82.6 19.45 82.14 13.77 54.17 13.77 53.24 19.45 25.27 19.9 24.82 48.9 18.12 50.1 18.12"/>
      <polyline class="cls-2" points="89.87 24.76 79.23 24.76 79.23 12.37"/>
    </g>
  </g>
</svg>