<svg width="24" height="30" viewBox="0 0 24 30" fill="none" xmlns="http://www.w3.org/2000/svg">
<g clip-path="url(#clip0_123_506)">
<path fill-rule="evenodd" clip-rule="evenodd" d="M20.7225 26.252C20.7552 26.4686 20.7108 26.6899 20.5972 26.8772C20.4835 27.0645 20.3078 27.2059 20.1005 27.277C18.5275 28.1372 16.688 28.3724 14.9492 27.9356C13.2104 27.4989 11.7003 26.4224 10.7205 24.921C8.48726 23.1838 6.53648 21.1112 4.93752 18.777C3.68095 16.6436 2.89665 14.2654 2.63752 11.803C1.89773 10.5988 1.59769 9.17555 1.78837 7.77516C1.97905 6.37477 2.64869 5.08359 3.68352 4.121C3.9344 3.40711 4.44398 2.81332 5.11152 2.457L5.16552 2.428C5.89879 2.02752 6.75613 1.91834 7.56637 2.12224C8.37662 2.32615 9.08015 2.82814 9.53652 3.528L11.1835 6.2C11.3921 6.54201 11.5276 6.92353 11.5814 7.32052C11.6353 7.7175 11.6062 8.12132 11.4962 8.50653C11.3862 8.89174 11.1976 9.24998 10.9422 9.55865C10.6868 9.86733 10.3703 10.1198 10.0125 10.3L9.95852 10.329C9.39178 10.6341 8.74925 10.7699 8.10752 10.72C8.20403 12.1439 8.56413 13.5376 9.16952 14.83L11.1885 18.11C11.9039 19.0621 12.778 19.8838 13.7725 20.539C14.0209 19.8162 14.5341 19.2145 15.2085 18.855L15.2625 18.826C15.9958 18.4255 16.8531 18.3163 17.6634 18.5202C18.4736 18.7241 19.1771 19.2261 19.6335 19.926L21.2815 22.6C21.6354 23.1765 21.7735 23.8598 21.6711 24.5284C21.5688 25.1971 21.2327 25.8078 20.7225 26.252Z" fill="#FFE600" stroke="#112832" stroke-width="2"/>
</g>
<defs>
<clipPath id="clip0_123_506">
<rect width="23" height="29" fill="white" transform="translate(0.5 0.5)"/>
</clipPath>
</defs>
</svg>
