<svg width="23" height="29" viewBox="0 0 23 29" fill="none" xmlns="http://www.w3.org/2000/svg">
    <g clip-path="url(#clip0_61_24)">
        <path fill-rule="evenodd" clip-rule="evenodd"
            d="M20.2215 25.752C20.2542 25.9687 20.2099 26.1899 20.0962 26.3772C19.9825 26.5645 19.8068 26.706 19.5995 26.777C18.0266 27.6372 16.187 27.8724 14.4482 27.4357C12.7094 26.9989 11.1994 25.9224 10.2195 24.421C7.98628 22.6838 6.0355 20.6113 4.43654 18.277C3.17998 16.1436 2.39567 13.7654 2.13654 11.303C1.39676 10.0988 1.09671 8.67558 1.28739 7.27519C1.47808 5.8748 2.14772 4.58362 3.18254 3.62103C3.43343 2.90714 3.943 2.31335 4.61054 1.95703L4.66454 1.92803C5.39782 1.52755 6.25515 1.41837 7.0654 1.62228C7.87564 1.82618 8.57917 2.32817 9.03554 3.02803L10.6825 5.70003C10.8912 6.04204 11.0266 6.42356 11.0805 6.82055C11.1343 7.21753 11.1053 7.62135 10.9952 8.00656C10.8852 8.39177 10.6966 8.75001 10.4412 9.05869C10.1859 9.36736 9.86931 9.61978 9.51154 9.80003L9.45754 9.82903C8.8908 10.1342 8.24827 10.2699 7.60654 10.22C7.70305 11.644 8.06316 13.0376 8.66854 14.33L10.6875 17.61C11.4029 18.5622 12.277 19.3839 13.2715 20.039C13.52 19.3163 14.0331 18.7145 14.7075 18.355L14.7615 18.326C15.4948 17.9256 16.3522 17.8164 17.1624 18.0203C17.9726 18.2242 18.6762 18.7262 19.1325 19.426L20.7805 22.1C21.1345 22.6765 21.2725 23.3598 21.1702 24.0284C21.0678 24.6971 20.7317 25.3078 20.2215 25.752Z"
            fill="#FFE600" stroke="#112832" stroke-width="2" />
    </g>
    <defs>
        <clipPath id="clip0_61_24">
            <rect width="23" height="29" fill="white" />
        </clipPath>
    </defs>
</svg>