<?xml version="1.0" encoding="UTF-8"?>
<svg id="Warstwa_2" data-name="Warstwa 2" xmlns="http://www.w3.org/2000/svg" viewBox="0 0 99 99">
  <defs>
    <style>
      .cls-1 {
        fill: #ffe500;
        stroke-width: 3px;
      }

      .cls-1, .cls-2 {
        stroke: #112832;
        stroke-miterlimit: 10;
      }

      .cls-2 {
        fill: none;
        stroke-width: 2px;
      }
    </style>
  </defs>
  <path class="cls-1" d="M49.23,94.5c1.44,0,40.08-8.86,40.08-8.86,1.59,.1,3.19-.6,4.21-2,1.09-1.49,1.25-3.4,.59-4.99,0,0-12.44-39.8-12.87-40.99S53.1,7.01,53.1,7.01c-.85-1.5-2.43-2.51-4.24-2.51-1.71,0-3.21,.9-4.09,2.26,0,0-26.54,30.31-26.98,31.64S5.02,78.45,5.02,78.45c-.71,1.46-.71,3.25,.14,4.76,.91,1.61,2.55,2.51,4.24,2.52,0,0,38.39,8.77,39.83,8.77Zm15-37.43c0,8.02-6.33,14.52-14.15,14.52s-14.15-6.5-14.15-14.52,6.33-14.52,14.15-14.52,14.15,6.5,14.15,14.52Z"/>
  <line class="cls-2" x1="90.03" y1="80.44" x2="81.09" y2="75.55"/>
  <g>
    <polygon class="cls-2" points="18.09 76 27.6 44.17 49.66 20.34 71.72 44.32 81.82 76.29 49.66 82.81 18.09 76"/>
    <polygon class="cls-2" points="9.29 80.44 22.12 40.17 49.37 9.53 77.2 40.77 89.89 80.59 49.66 89.91 9.29 80.44"/>
    <line class="cls-2" x1="9.29" y1="80.44" x2="18.23" y2="75.55"/>
    <line class="cls-2" x1="71.15" y1="44.17" x2="77.2" y2="41.06"/>
    <line class="cls-2" x1="28.18" y1="44.17" x2="22.12" y2="41.06"/>
    <line class="cls-2" x1="49.45" y1="89.76" x2="49.45" y2="83.47"/>
    <line class="cls-2" x1="49.45" y1="21.48" x2="49.81" y2="10.72"/>
  </g>
</svg>