<svg width="20" height="22" viewBox="0 0 20 22" fill="none" xmlns="http://www.w3.org/2000/svg">
    <path
        d="M19.7558 20.4419L15.3777 16.0637C16.7286 14.3961 17.5 12.2996 17.5 10.0625C17.5 4.51172 13.5758 0 8.75 0C3.92422 0 0 4.51172 0 10.0625C0 15.6133 3.92422 20.125 8.75 20.125C10.7105 20.125 12.5402 19.4414 14.0574 18.2441L18.4355 22.6223C18.6012 22.7879 18.8277 22.875 19.0543 22.875C19.2809 22.875 19.5074 22.7879 19.6731 22.6223C20.0043 22.2911 20.0043 21.7477 19.7558 20.4419ZM2.1875 10.0625C2.1875 5.71875 5.13672 2.1875 8.75 2.1875C12.3633 2.1875 15.3125 5.71875 15.3125 10.0625C15.3125 14.4062 12.3633 17.9375 8.75 17.9375C5.13672 17.9375 2.1875 14.4062 2.1875 10.0625Z"
        fill="#083344" />
</svg> 