<svg width="84" height="84" viewBox="0 0 84 84" fill="none" xmlns="http://www.w3.org/2000/svg">
<path d="M17.5 73.5C15.575 73.5 13.9271 72.8146 12.5562 71.4438C11.1854 70.0729 10.5 68.425 10.5 66.5V17.5C10.5 15.575 11.1854 13.9271 12.5562 12.5563C13.9271 11.1854 15.575 10.5 17.5 10.5H66.5C68.425 10.5 70.0729 11.1854 71.4437 12.5563C72.8146 13.9271 73.5 15.575 73.5 17.5V66.5C73.5 68.425 72.8146 70.0729 71.4437 71.4438C70.0729 72.8146 68.425 73.5 66.5 73.5H17.5ZM17.5 66.5H66.5V17.5H17.5V66.5ZM21 59.5H63L49.875 42L39.375 56L31.5 45.5L21 59.5Z" fill="#112832"/>
</svg>
