<svg width="32" height="32" viewBox="0 0 32 32" fill="none" xmlns="http://www.w3.org/2000/svg">
<path d="M7.93398 27C7.32898 27 6.81107 26.7846 6.38023 26.3538C5.9494 25.9229 5.73398 25.405 5.73398 24.8C5.73398 24.195 5.9494 23.6771 6.38023 23.2463C6.81107 22.8154 7.32898 22.6 7.93398 22.6C8.53898 22.6 9.0569 22.8154 9.48773 23.2463C9.91857 23.6771 10.134 24.195 10.134 24.8C10.134 25.405 9.91857 25.9229 9.48773 26.3538C9.0569 26.7846 8.53898 27 7.93398 27ZM18.934 27C18.329 27 17.8111 26.7846 17.3802 26.3538C16.9494 25.9229 16.734 25.405 16.734 24.8C16.734 24.195 16.9494 23.6771 17.3802 23.2463C17.8111 22.8154 18.329 22.6 18.934 22.6C19.539 22.6 20.0569 22.8154 20.4877 23.2463C20.9186 23.6771 21.134 24.195 21.134 24.8C21.134 25.405 20.9186 25.9229 20.4877 26.3538C20.0569 26.7846 19.539 27 18.934 27ZM6.99898 9.4L9.63898 14.9H17.339L20.364 9.4H6.99898ZM5.95398 7.2H22.179C22.6007 7.2 22.9215 7.38792 23.1415 7.76375C23.3615 8.13958 23.3707 8.52 23.169 8.905L19.264 15.945C19.0623 16.3117 18.7919 16.5958 18.4527 16.7975C18.1136 16.9992 17.7423 17.1 17.339 17.1H9.14398L7.93398 19.3H21.134V21.5H7.93398C7.10898 21.5 6.48565 21.1379 6.06398 20.4137C5.64232 19.6896 5.62398 18.97 6.00898 18.255L7.49398 15.56L3.53398 7.2H1.33398V5H4.90898L5.95398 7.2Z" fill="#112832"/>
</svg>
