<svg width="32" height="32" viewBox="0 0 32 32" fill="none" xmlns="http://www.w3.org/2000/svg">
<path d="M11.6 27C10.995 27 10.4771 26.7846 10.0463 26.3538C9.61542 25.9229 9.4 25.405 9.4 24.8C9.4 24.195 9.61542 23.6771 10.0463 23.2463C10.4771 22.8154 10.995 22.6 11.6 22.6C12.205 22.6 12.7229 22.8154 13.1538 23.2463C13.5846 23.6771 13.8 24.195 13.8 24.8C13.8 25.405 13.5846 25.9229 13.1538 26.3538C12.7229 26.7846 12.205 27 11.6 27ZM22.6 27C21.995 27 21.4771 26.7846 21.0463 26.3538C20.6154 25.9229 20.4 25.405 20.4 24.8C20.4 24.195 20.6154 23.6771 21.0463 23.2463C21.4771 22.8154 21.995 22.6 22.6 22.6C23.205 22.6 23.7229 22.8154 24.1538 23.2463C24.5846 23.6771 24.8 24.195 24.8 24.8C24.8 25.405 24.5846 25.9229 24.1538 26.3538C23.7229 26.7846 23.205 27 22.6 27ZM10.665 9.4L13.305 14.9H21.005L24.03 9.4H10.665ZM9.62 7.2H25.845C26.2667 7.2 26.5875 7.38792 26.8075 7.76375C27.0275 8.13958 27.0367 8.52 26.835 8.905L22.93 15.945C22.7283 16.3117 22.4579 16.5958 22.1188 16.7975C21.7796 16.9992 21.4083 17.1 21.005 17.1H12.81L11.6 19.3H24.8V21.5H11.6C10.775 21.5 10.1517 21.1379 9.73 20.4137C9.30833 19.6896 9.29 18.97 9.675 18.255L11.16 15.56L7.2 7.2H5V5H8.575L9.62 7.2Z" fill="#112832"/>
</svg>
