<svg width="32" height="32" viewBox="0 0 32 32" fill="none" xmlns="http://www.w3.org/2000/svg">
<path d="M7.875 27C6.72917 27 5.75521 26.599 4.95312 25.7969C4.15104 24.9948 3.75 24.0208 3.75 22.875H1V7.75C1 6.99375 1.26927 6.34635 1.80781 5.80781C2.34635 5.26927 2.99375 5 3.75 5H23V10.5H27.125L31.25 16V22.875H28.5C28.5 24.0208 28.099 24.9948 27.2969 25.7969C26.4948 26.599 25.5208 27 24.375 27C23.2292 27 22.2552 26.599 21.4531 25.7969C20.651 24.9948 20.25 24.0208 20.25 22.875H12C12 24.0208 11.599 24.9948 10.7969 25.7969C9.99479 26.599 9.02083 27 7.875 27ZM7.875 24.25C8.26458 24.25 8.59115 24.1182 8.85469 23.8547C9.11823 23.5911 9.25 23.2646 9.25 22.875C9.25 22.4854 9.11823 22.1589 8.85469 21.8953C8.59115 21.6318 8.26458 21.5 7.875 21.5C7.48542 21.5 7.15885 21.6318 6.89531 21.8953C6.63177 22.1589 6.5 22.4854 6.5 22.875C6.5 23.2646 6.63177 23.5911 6.89531 23.8547C7.15885 24.1182 7.48542 24.25 7.875 24.25ZM3.75 20.125H4.85C5.23958 19.7125 5.68646 19.3802 6.19063 19.1281C6.69479 18.876 7.25625 18.75 7.875 18.75C8.49375 18.75 9.05521 18.876 9.55937 19.1281C10.0635 19.3802 10.5104 19.7125 10.9 20.125H20.25V7.75H3.75V20.125ZM24.375 24.25C24.7646 24.25 25.0911 24.1182 25.3547 23.8547C25.6182 23.5911 25.75 23.2646 25.75 22.875C25.75 22.4854 25.6182 22.1589 25.3547 21.8953C25.0911 21.6318 24.7646 21.5 24.375 21.5C23.9854 21.5 23.6589 21.6318 23.3953 21.8953C23.1318 22.1589 23 22.4854 23 22.875C23 23.2646 23.1318 23.5911 23.3953 23.8547C23.6589 24.1182 23.9854 24.25 24.375 24.25ZM23 17.375H28.8438L25.75 13.25H23V17.375Z" fill="#112832"/>
</svg>
